<?xml version="1.0" encoding="UTF-8" standalone="no"?>
<!DOCTYPE svg PUBLIC "-//W3C//DTD SVG 1.1//EN"
 "http://www.w3.org/Graphics/SVG/1.1/DTD/svg11.dtd">
<!-- Generated by graphviz version 2.43.0 (0)
 -->
<!-- Title: %3 Pages: 1 -->
<svg width="195pt" height="620pt"
 viewBox="0.00 0.00 194.89 620.00" xmlns="http://www.w3.org/2000/svg" xmlns:xlink="http://www.w3.org/1999/xlink">
<g id="graph0" class="graph" transform="scale(1 1) rotate(0) translate(4 616)">
<title>%3</title>
<polygon fill="white" stroke="transparent" points="-4,4 -4,-616 190.89,-616 190.89,4 -4,4"/>
<!-- 1 -->
<g id="node1" class="node">
<title>1</title>
<ellipse fill="none" stroke="black" cx="73.45" cy="-594" rx="27" ry="18"/>
<text text-anchor="middle" x="73.45" y="-590.3" font-family="Times,serif" font-size="14.00">1</text>
</g>
<!-- null0 -->
<!-- 1&#45;&gt;null0 -->
<!-- 9 -->
<g id="node3" class="node">
<title>9</title>
<ellipse fill="none" stroke="black" cx="113.45" cy="-522" rx="27" ry="18"/>
<text text-anchor="middle" x="113.45" y="-518.3" font-family="Times,serif" font-size="14.00">9</text>
</g>
<!-- 1&#45;&gt;9 -->
<g id="edge2" class="edge">
<title>1&#45;&gt;9</title>
<path fill="none" stroke="black" d="M82.72,-576.76C89.19,-565.46 97.77,-550.44 104.22,-539.15"/>
</g>
<!-- 2 -->
<g id="node4" class="node">
<title>2</title>
<ellipse fill="none" stroke="black" cx="73.45" cy="-450" rx="27" ry="18"/>
<text text-anchor="middle" x="73.45" y="-446.3" font-family="Times,serif" font-size="14.00">2</text>
</g>
<!-- 9&#45;&gt;2 -->
<g id="edge3" class="edge">
<title>9&#45;&gt;2</title>
<path fill="none" stroke="black" d="M104.17,-504.76C97.71,-493.46 89.13,-478.44 82.67,-467.15"/>
</g>
<!-- null1 -->
<!-- 9&#45;&gt;null1 -->
<!-- null2 -->
<!-- 2&#45;&gt;null2 -->
<!-- 8 -->
<g id="node7" class="node">
<title>8</title>
<ellipse fill="none" stroke="black" cx="113.45" cy="-378" rx="27" ry="18"/>
<text text-anchor="middle" x="113.45" y="-374.3" font-family="Times,serif" font-size="14.00">8</text>
</g>
<!-- 2&#45;&gt;8 -->
<g id="edge6" class="edge">
<title>2&#45;&gt;8</title>
<path fill="none" stroke="black" d="M82.72,-432.76C89.19,-421.46 97.77,-406.44 104.22,-395.15"/>
</g>
<!-- 3 -->
<g id="node8" class="node">
<title>3</title>
<ellipse fill="none" stroke="black" cx="73.45" cy="-306" rx="27" ry="18"/>
<text text-anchor="middle" x="73.45" y="-302.3" font-family="Times,serif" font-size="14.00">3</text>
</g>
<!-- 8&#45;&gt;3 -->
<g id="edge7" class="edge">
<title>8&#45;&gt;3</title>
<path fill="none" stroke="black" d="M104.17,-360.76C97.71,-349.46 89.13,-334.44 82.67,-323.15"/>
</g>
<!-- null3 -->
<!-- 8&#45;&gt;null3 -->
<!-- null4 -->
<!-- 3&#45;&gt;null4 -->
<!-- 7 -->
<g id="node11" class="node">
<title>7</title>
<ellipse fill="none" stroke="black" cx="113.45" cy="-234" rx="27" ry="18"/>
<text text-anchor="middle" x="113.45" y="-230.3" font-family="Times,serif" font-size="14.00">7</text>
</g>
<!-- 3&#45;&gt;7 -->
<g id="edge10" class="edge">
<title>3&#45;&gt;7</title>
<path fill="none" stroke="black" d="M82.72,-288.76C89.19,-277.46 97.77,-262.44 104.22,-251.15"/>
</g>
<!-- 4 -->
<g id="node12" class="node">
<title>4</title>
<ellipse fill="none" stroke="black" cx="73.45" cy="-162" rx="27" ry="18"/>
<text text-anchor="middle" x="73.45" y="-158.3" font-family="Times,serif" font-size="14.00">4</text>
</g>
<!-- 7&#45;&gt;4 -->
<g id="edge11" class="edge">
<title>7&#45;&gt;4</title>
<path fill="none" stroke="black" d="M104.17,-216.76C97.71,-205.46 89.13,-190.44 82.67,-179.15"/>
</g>
<!-- null5 -->
<!-- 7&#45;&gt;null5 -->
<!-- null6 -->
<!-- 4&#45;&gt;null6 -->
<!-- 6 -->
<g id="node15" class="node">
<title>6</title>
<ellipse fill="none" stroke="black" cx="113.45" cy="-90" rx="27" ry="18"/>
<text text-anchor="middle" x="113.45" y="-86.3" font-family="Times,serif" font-size="14.00">6</text>
</g>
<!-- 4&#45;&gt;6 -->
<g id="edge14" class="edge">
<title>4&#45;&gt;6</title>
<path fill="none" stroke="black" d="M82.72,-144.76C89.19,-133.46 97.77,-118.44 104.22,-107.15"/>
</g>
<!-- 5 -->
<g id="node16" class="node">
<title>5</title>
<ellipse fill="none" stroke="black" cx="73.45" cy="-18" rx="27" ry="18"/>
<text text-anchor="middle" x="73.45" y="-14.3" font-family="Times,serif" font-size="14.00">5</text>
</g>
<!-- 6&#45;&gt;5 -->
<g id="edge15" class="edge">
<title>6&#45;&gt;5</title>
<path fill="none" stroke="black" d="M104.17,-72.76C97.71,-61.46 89.13,-46.44 82.67,-35.15"/>
</g>
<!-- null7 -->
<!-- 6&#45;&gt;null7 -->
</g>
</svg>
