<?xml version="1.0" encoding="UTF-8" standalone="no"?>
<!DOCTYPE svg PUBLIC "-//W3C//DTD SVG 1.1//EN"
 "http://www.w3.org/Graphics/SVG/1.1/DTD/svg11.dtd">
<!-- Generated by graphviz version 2.43.0 (0)
 -->
<!-- Title: %3 Pages: 1 -->
<svg width="195pt" height="692pt"
 viewBox="0.00 0.00 194.89 692.00" xmlns="http://www.w3.org/2000/svg" xmlns:xlink="http://www.w3.org/1999/xlink">
<g id="graph0" class="graph" transform="scale(1 1) rotate(0) translate(4 688)">
<title>%3</title>
<polygon fill="white" stroke="transparent" points="-4,4 -4,-688 190.89,-688 190.89,4 -4,4"/>
<!-- null0 -->
<!-- 1 -->
<g id="node2" class="node">
<title>1</title>
<ellipse fill="none" stroke="black" cx="73.45" cy="-666" rx="27" ry="18"/>
<text text-anchor="middle" x="73.45" y="-662.3" font-family="Times,serif" font-size="14.00">1</text>
</g>
<!-- 1&#45;&gt;null0 -->
<!-- 10 -->
<g id="node3" class="node">
<title>10</title>
<ellipse fill="none" stroke="black" cx="113.45" cy="-594" rx="27" ry="18"/>
<text text-anchor="middle" x="113.45" y="-590.3" font-family="Times,serif" font-size="14.00">10</text>
</g>
<!-- 1&#45;&gt;10 -->
<g id="edge2" class="edge">
<title>1&#45;&gt;10</title>
<path fill="none" stroke="black" d="M82.72,-648.76C87.62,-640.19 93.74,-629.49 99.22,-619.9"/>
<polygon fill="black" stroke="black" points="102.3,-621.57 104.22,-611.15 96.22,-618.09 102.3,-621.57"/>
</g>
<!-- 2 -->
<g id="node4" class="node">
<title>2</title>
<ellipse fill="none" stroke="black" cx="73.45" cy="-522" rx="27" ry="18"/>
<text text-anchor="middle" x="73.45" y="-518.3" font-family="Times,serif" font-size="14.00">2</text>
</g>
<!-- 10&#45;&gt;2 -->
<g id="edge3" class="edge">
<title>10&#45;&gt;2</title>
<path fill="none" stroke="black" d="M104.17,-576.76C99.27,-568.19 93.16,-557.49 87.68,-547.9"/>
<polygon fill="black" stroke="black" points="90.67,-546.09 82.67,-539.15 84.6,-549.57 90.67,-546.09"/>
</g>
<!-- null1 -->
<!-- 10&#45;&gt;null1 -->
<!-- null2 -->
<!-- 2&#45;&gt;null2 -->
<!-- 9 -->
<g id="node7" class="node">
<title>9</title>
<ellipse fill="none" stroke="black" cx="113.45" cy="-450" rx="27" ry="18"/>
<text text-anchor="middle" x="113.45" y="-446.3" font-family="Times,serif" font-size="14.00">9</text>
</g>
<!-- 2&#45;&gt;9 -->
<g id="edge6" class="edge">
<title>2&#45;&gt;9</title>
<path fill="none" stroke="black" d="M82.72,-504.76C87.62,-496.19 93.74,-485.49 99.22,-475.9"/>
<polygon fill="black" stroke="black" points="102.3,-477.57 104.22,-467.15 96.22,-474.09 102.3,-477.57"/>
</g>
<!-- 3 -->
<g id="node8" class="node">
<title>3</title>
<ellipse fill="none" stroke="black" cx="73.45" cy="-378" rx="27" ry="18"/>
<text text-anchor="middle" x="73.45" y="-374.3" font-family="Times,serif" font-size="14.00">3</text>
</g>
<!-- 9&#45;&gt;3 -->
<g id="edge7" class="edge">
<title>9&#45;&gt;3</title>
<path fill="none" stroke="black" d="M104.17,-432.76C99.27,-424.19 93.16,-413.49 87.68,-403.9"/>
<polygon fill="black" stroke="black" points="90.67,-402.09 82.67,-395.15 84.6,-405.57 90.67,-402.09"/>
</g>
<!-- null3 -->
<!-- 9&#45;&gt;null3 -->
<!-- null4 -->
<!-- 3&#45;&gt;null4 -->
<!-- 8 -->
<g id="node11" class="node">
<title>8</title>
<ellipse fill="none" stroke="black" cx="113.45" cy="-306" rx="27" ry="18"/>
<text text-anchor="middle" x="113.45" y="-302.3" font-family="Times,serif" font-size="14.00">8</text>
</g>
<!-- 3&#45;&gt;8 -->
<g id="edge10" class="edge">
<title>3&#45;&gt;8</title>
<path fill="none" stroke="black" d="M82.72,-360.76C87.62,-352.19 93.74,-341.49 99.22,-331.9"/>
<polygon fill="black" stroke="black" points="102.3,-333.57 104.22,-323.15 96.22,-330.09 102.3,-333.57"/>
</g>
<!-- 4 -->
<g id="node12" class="node">
<title>4</title>
<ellipse fill="none" stroke="black" cx="73.45" cy="-234" rx="27" ry="18"/>
<text text-anchor="middle" x="73.45" y="-230.3" font-family="Times,serif" font-size="14.00">4</text>
</g>
<!-- 8&#45;&gt;4 -->
<g id="edge11" class="edge">
<title>8&#45;&gt;4</title>
<path fill="none" stroke="black" d="M104.17,-288.76C99.27,-280.19 93.16,-269.49 87.68,-259.9"/>
<polygon fill="black" stroke="black" points="90.67,-258.09 82.67,-251.15 84.6,-261.57 90.67,-258.09"/>
</g>
<!-- null5 -->
<!-- 8&#45;&gt;null5 -->
<!-- null6 -->
<!-- 4&#45;&gt;null6 -->
<!-- 7 -->
<g id="node15" class="node">
<title>7</title>
<ellipse fill="none" stroke="black" cx="113.45" cy="-162" rx="27" ry="18"/>
<text text-anchor="middle" x="113.45" y="-158.3" font-family="Times,serif" font-size="14.00">7</text>
</g>
<!-- 4&#45;&gt;7 -->
<g id="edge14" class="edge">
<title>4&#45;&gt;7</title>
<path fill="none" stroke="black" d="M82.72,-216.76C87.62,-208.19 93.74,-197.49 99.22,-187.9"/>
<polygon fill="black" stroke="black" points="102.3,-189.57 104.22,-179.15 96.22,-186.09 102.3,-189.57"/>
</g>
<!-- 5 -->
<g id="node16" class="node">
<title>5</title>
<ellipse fill="none" stroke="black" cx="73.45" cy="-90" rx="27" ry="18"/>
<text text-anchor="middle" x="73.45" y="-86.3" font-family="Times,serif" font-size="14.00">5</text>
</g>
<!-- 7&#45;&gt;5 -->
<g id="edge15" class="edge">
<title>7&#45;&gt;5</title>
<path fill="none" stroke="black" d="M104.17,-144.76C99.27,-136.19 93.16,-125.49 87.68,-115.9"/>
<polygon fill="black" stroke="black" points="90.67,-114.09 82.67,-107.15 84.6,-117.57 90.67,-114.09"/>
</g>
<!-- null7 -->
<!-- 7&#45;&gt;null7 -->
<!-- null8 -->
<!-- 5&#45;&gt;null8 -->
<!-- 6 -->
<g id="node19" class="node">
<title>6</title>
<ellipse fill="none" stroke="black" cx="113.45" cy="-18" rx="27" ry="18"/>
<text text-anchor="middle" x="113.45" y="-14.3" font-family="Times,serif" font-size="14.00">6</text>
</g>
<!-- 5&#45;&gt;6 -->
<g id="edge18" class="edge">
<title>5&#45;&gt;6</title>
<path fill="none" stroke="black" d="M82.72,-72.76C87.62,-64.19 93.74,-53.49 99.22,-43.9"/>
<polygon fill="black" stroke="black" points="102.3,-45.57 104.22,-35.15 96.22,-42.09 102.3,-45.57"/>
</g>
</g>
</svg>
