<?xml version="1.0" encoding="UTF-8" standalone="no"?>
<!DOCTYPE svg PUBLIC "-//W3C//DTD SVG 1.1//EN"
 "http://www.w3.org/Graphics/SVG/1.1/DTD/svg11.dtd">
<!-- Generated by graphviz version 2.40.1 (20161225.0304)
 -->
<!-- Title: %3 Pages: 1 -->
<svg width="319pt" height="260pt"
 viewBox="0.00 0.00 318.60 260.00" xmlns="http://www.w3.org/2000/svg" xmlns:xlink="http://www.w3.org/1999/xlink">
<g id="graph0" class="graph" transform="scale(1 1) rotate(0) translate(4 256)">
<title>%3</title>
<polygon fill="#ffffff" stroke="transparent" points="-4,4 -4,-256 314.5975,-256 314.5975,4 -4,4"/>
<!-- 3 -->
<g id="node1" class="node">
<title>3</title>
<ellipse fill="none" stroke="#000000" cx="99" cy="-162" rx="27" ry="18"/>
<text text-anchor="middle" x="99" y="-158.3" font-family="Times,serif" font-size="14.00" fill="#000000">3</text>
</g>
<!-- 1 -->
<g id="node2" class="node">
<title>1</title>
<ellipse fill="none" stroke="#000000" cx="27" cy="-90" rx="27" ry="18"/>
<text text-anchor="middle" x="27" y="-86.3" font-family="Times,serif" font-size="14.00" fill="#000000">1</text>
</g>
<!-- 3&#45;&#45;1 -->
<g id="edge1" class="edge">
<title>3&#45;&#45;1</title>
<path fill="none" stroke="#000000" d="M83.7307,-146.7307C71.512,-134.512 54.4602,-117.4602 42.2473,-105.2473"/>
</g>
<!-- 6 -->
<g id="node3" class="node">
<title>6</title>
<ellipse fill="none" stroke="#000000" cx="99" cy="-90" rx="27" ry="18"/>
<text text-anchor="middle" x="99" y="-86.3" font-family="Times,serif" font-size="14.00" fill="#000000">6</text>
</g>
<!-- 3&#45;&#45;6 -->
<g id="edge4" class="edge">
<title>3&#45;&#45;6</title>
<path fill="none" stroke="#000000" d="M99,-143.8314C99,-133 99,-119.2876 99,-108.4133"/>
</g>
<!-- 4 -->
<g id="node4" class="node">
<title>4</title>
<ellipse fill="none" stroke="#000000" cx="63" cy="-18" rx="27" ry="18"/>
<text text-anchor="middle" x="63" y="-14.3" font-family="Times,serif" font-size="14.00" fill="#000000">4</text>
</g>
<!-- 6&#45;&#45;4 -->
<g id="edge2" class="edge">
<title>6&#45;&#45;4</title>
<path fill="none" stroke="#000000" d="M90.2854,-72.5708C84.6253,-61.2506 77.2784,-46.5568 71.6343,-35.2687"/>
</g>
<!-- 7 -->
<g id="node5" class="node">
<title>7</title>
<ellipse fill="none" stroke="#000000" cx="135" cy="-18" rx="27" ry="18"/>
<text text-anchor="middle" x="135" y="-14.3" font-family="Times,serif" font-size="14.00" fill="#000000">7</text>
</g>
<!-- 6&#45;&#45;7 -->
<g id="edge3" class="edge">
<title>6&#45;&#45;7</title>
<path fill="none" stroke="#000000" d="M107.7146,-72.5708C113.3747,-61.2506 120.7216,-46.5568 126.3657,-35.2687"/>
</g>
<!-- 8 -->
<g id="node6" class="node">
<title>8</title>
<ellipse fill="none" stroke="#000000" cx="136" cy="-234" rx="27" ry="18"/>
<text text-anchor="middle" x="136" y="-230.3" font-family="Times,serif" font-size="14.00" fill="#000000">8</text>
</g>
<!-- 8&#45;&#45;3 -->
<g id="edge5" class="edge">
<title>8&#45;&#45;3</title>
<path fill="none" stroke="#000000" d="M127.2315,-216.937C121.4189,-205.626 113.8145,-190.8282 107.9626,-179.4407"/>
</g>
<!-- 10 -->
<g id="node8" class="node">
<title>10</title>
<ellipse fill="none" stroke="#000000" cx="173" cy="-162" rx="27" ry="18"/>
<text text-anchor="middle" x="173" y="-158.3" font-family="Times,serif" font-size="14.00" fill="#000000">10</text>
</g>
<!-- 8&#45;&#45;10 -->
<g id="edge10" class="edge">
<title>8&#45;&#45;10</title>
<path fill="none" stroke="#000000" d="M144.7685,-216.937C150.5811,-205.626 158.1855,-190.8282 164.0374,-179.4407"/>
</g>
<!-- null0 -->
<!-- 10&#45;&#45;null0 -->
<!-- 14 -->
<g id="node9" class="node">
<title>14</title>
<ellipse fill="none" stroke="#000000" cx="247" cy="-90" rx="27" ry="18"/>
<text text-anchor="middle" x="247" y="-86.3" font-family="Times,serif" font-size="14.00" fill="#000000">14</text>
</g>
<!-- 10&#45;&#45;14 -->
<g id="edge9" class="edge">
<title>10&#45;&#45;14</title>
<path fill="none" stroke="#000000" d="M188.3328,-147.0816C201.0331,-134.7246 218.992,-117.251 231.6868,-104.8993"/>
</g>
<!-- 13 -->
<g id="node10" class="node">
<title>13</title>
<ellipse fill="none" stroke="#000000" cx="208" cy="-18" rx="27" ry="18"/>
<text text-anchor="middle" x="208" y="-14.3" font-family="Times,serif" font-size="14.00" fill="#000000">13</text>
</g>
<!-- 14&#45;&#45;13 -->
<g id="edge7" class="edge">
<title>14&#45;&#45;13</title>
<path fill="none" stroke="#000000" d="M237.7575,-72.937C231.5406,-61.4596 223.3791,-46.3922 217.1761,-34.9405"/>
</g>
<!-- null1 -->
<!-- 14&#45;&#45;null1 -->
</g>
</svg>
